HIERARCHY
ROOT Hips
{
	OFFSET 0.00000 0.00000 0.00000
	CHANNELS 6 Xposition Yposition Zposition Zrotation Yrotation Xrotation 
	JOINT LHipJoint
	{
		OFFSET 0 0 0
		CHANNELS 3 Zrotation Yrotation Xrotation
		JOINT LeftUpLeg
		{
			OFFSET 1.37590 -1.78394 0.89329
			CHANNELS 3 Zrotation Yrotation Xrotation
			JOINT LeftLeg
			{
				OFFSET 2.47928 -6.81178 0.00000
				CHANNELS 3 Zrotation Yrotation Xrotation
				JOINT LeftFoot
				{
					OFFSET 2.63345 -7.23535 0.00000
					CHANNELS 3 Zrotation Yrotation Xrotation
					JOINT LeftToeBase
					{
						OFFSET 0.23938 -0.65768 2.27012
						CHANNELS 3 Zrotation Yrotation Xrotation
						End Site
						{
							OFFSET 0.00000 -0.00000 1.18363
						}
					}
				}
			}
		}
	}
	JOINT RHipJoint
	{
		OFFSET 0 0 0
		CHANNELS 3 Zrotation Yrotation Xrotation
		JOINT RightUpLeg
		{
			OFFSET -1.33617 -1.78394 0.89329
			CHANNELS 3 Zrotation Yrotation Xrotation
			JOINT RightLeg
			{
				OFFSET -2.56922 -7.05888 0.00000
				CHANNELS 3 Zrotation Yrotation Xrotation
				JOINT RightFoot
				{
					OFFSET -2.56568 -7.04915 0.00000
					CHANNELS 3 Zrotation Yrotation Xrotation
					JOINT RightToeBase
					{
						OFFSET -0.27533 -0.75646 2.18105
						CHANNELS 3 Zrotation Yrotation Xrotation
						End Site
						{
							OFFSET -0.00000 -0.00000 1.15233
						}
					}
				}
			}
		}
	}
	JOINT LowerBack
	{
		OFFSET 0 0 0
		CHANNELS 3 Zrotation Yrotation Xrotation
		JOINT Spine
		{
			OFFSET 0.06190 2.15152 -0.00935
			CHANNELS 3 Zrotation Yrotation Xrotation
			JOINT Spine1
			{
				OFFSET 0.06334 2.15332 0.00872
				CHANNELS 3 Zrotation Yrotation Xrotation
				JOINT Neck
				{
					OFFSET 0 0 0
					CHANNELS 3 Zrotation Yrotation Xrotation
					JOINT Neck1
					{
						OFFSET -0.04202 1.66908 0.23524
						CHANNELS 3 Zrotation Yrotation Xrotation
						JOINT Head
						{
							OFFSET 0.07510 1.69357 -0.24440
							CHANNELS 3 Zrotation Yrotation Xrotation
							End Site
							{
								OFFSET 0.02556 1.71719 -0.11000
							}
						}
					}
				}
				JOINT LeftShoulder
				{
					OFFSET 0 0 0
					CHANNELS 3 Zrotation Yrotation Xrotation
					JOINT LeftArm
					{
						OFFSET 3.67168 1.26306 -0.41342
						CHANNELS 3 Zrotation Yrotation Xrotation
						JOINT LeftForeArm
						{
							OFFSET 4.68510 -0.00000 -0.00000
							CHANNELS 3 Zrotation Yrotation Xrotation
							JOINT LeftHand
							{
								OFFSET 3.39626 -0.00000 -0.00000
								CHANNELS 3 Zrotation Yrotation Xrotation
								JOINT LeftFingerBase
								{
									OFFSET 0 0 0
									CHANNELS 3 Zrotation Yrotation Xrotation
									JOINT LeftHandIndex1
									{
										OFFSET 0.48608 -0.00000 -0.00000
										CHANNELS 3 Zrotation Yrotation Xrotation
										End Site
										{
											OFFSET 0.39189 -0.00000 -0.00000
										}
									}
								}
								JOINT LThumb
								{
									OFFSET 0 0 0
									CHANNELS 3 Zrotation Yrotation Xrotation
									End Site
									{
										OFFSET 0.39787 -0.00000 0.39787
									}
								}
							}
						}
					}
				}
				JOINT RightShoulder
				{
					OFFSET 0 0 0
					CHANNELS 3 Zrotation Yrotation Xrotation
					JOINT RightArm
					{
						OFFSET -3.04136 1.42992 -0.76390
						CHANNELS 3 Zrotation Yrotation Xrotation
						JOINT RightForeArm
						{
							OFFSET -5.55576 -0.00000 -0.00000
							CHANNELS 3 Zrotation Yrotation Xrotation
							JOINT RightHand
							{
								OFFSET -3.32774 -0.00000 -0.00000
								CHANNELS 3 Zrotation Yrotation Xrotation
								JOINT RightFingerBase
								{
									OFFSET 0 0 0
									CHANNELS 3 Zrotation Yrotation Xrotation
									JOINT RightHandIndex1
									{
										OFFSET -0.50763 -0.00000 -0.00000
										CHANNELS 3 Zrotation Yrotation Xrotation
										End Site
										{
											OFFSET -0.40926 -0.00000 -0.00000
										}
									}
								}
								JOINT RThumb
								{
									OFFSET 0 0 0
									CHANNELS 3 Zrotation Yrotation Xrotation
									End Site
									{
										OFFSET -0.41551 -0.00000 0.41551
									}
								}
							}
						}
					}
				}
			}
		}
	}
}
MOTION
Frames: 9
Frame Time: 0.0444444
0.00 0.00 0.00 -37.5185 -82.1670 40.0629 0.0000 0.0000 0.0000 -15.8168 -7.9901 -14.0647 0.9744 6.2842 17.6112 0.0765 -0.5234 -5.0617 0.1369 -2.3845 -6.5696 0.0000 0.0000 0.0000 23.6148 -5.3957 -21.0402 -8.1978 -16.2628 53.2721 0.7073 -14.8668 -7.9323 -0.3683 -3.8982 10.7905 2.9393 2.8855 -2.8495 1.9943 3.7522 -2.8675 0.4681 1.8198 -1.2947 -10.8411 -8.1923 -1.4095 13.6668 -10.0726 -19.2818 6.3048 -5.2728 -4.1632 0.0000 -0.0000 0.0000 -88.4705 1.3329 57.4676 115.4608 -57.4030 -81.8574 -0.0000 0.0000 -46.5385 10.2647 52.0942 8.1318 -7.1250 0.0000 -0.0000 -64.3429 74.7752 -49.4337 0.0000 -0.0000 0.0000 96.8495 28.4450 59.5425 -75.8610 59.2310 -47.7869 0.0000 -0.0000 -58.6438 -35.5897 -63.9784 32.7455 7.1250 -0.0000 -0.0000 132.6659 79.0766 141.2774
0.00 0.00 0.00 -24.0328 -80.9033 27.0830 0.0000 0.0000 0.0000 -17.5845 -7.4211 -10.8682 0.8476 5.8721 16.4138 0.1271 -2.0571 -6.3349 0.0951 -1.9891 -5.4756 0.0000 0.0000 0.0000 19.9469 -3.4558 -26.5311 -7.0668 -15.3879 49.1265 0.6955 -15.2575 -10.5123 -0.2865 -3.4425 9.5131 2.2020 1.6675 -1.8911 1.8059 2.1872 -2.8767 0.6252 1.0486 -1.8796 -9.6761 -7.6336 -2.4592 12.9349 -9.3230 -18.2048 5.7975 -4.9074 -3.8634 0.0000 -0.0000 0.0000 -89.7874 5.8176 59.9922 95.6699 -59.8782 -64.9083 -0.0000 0.0000 -44.9208 4.5512 48.8748 3.4314 -7.1250 0.0000 -0.0000 -58.4449 71.3056 -40.5490 0.0000 -0.0000 0.0000 97.3425 37.1305 55.4699 -93.5416 59.9526 -63.0666 0.0000 -0.0000 -55.7670 -30.3876 -60.5748 27.0561 7.1250 -0.0000 -0.0000 110.3638 81.1621 118.9575
0.00 0.00 0.00 -17.3259 -80.5599 21.2811 0.0000 0.0000 0.0000 -18.7400 -6.4910 -7.8480 0.7403 5.4964 15.3299 0.2118 -2.9008 -8.1760 0.0697 -1.7031 -4.6858 0.0000 0.0000 0.0000 15.7533 -0.2844 -30.3834 -4.5101 -12.8099 38.6608 0.6367 -14.6786 -10.3006 -0.0989 -2.0276 5.5818 1.4912 0.1905 -1.1261 1.9700 0.2488 -2.8475 1.1844 0.0961 -2.2915 -8.0320 -6.0689 -4.0413 11.8921 -7.2645 -16.9418 5.1155 -3.9005 -3.5770 0.0000 -0.0000 0.0000 -92.2192 6.3131 60.7663 75.4071 -59.1799 -47.3970 -0.0000 0.0000 -44.8985 1.5890 46.7231 1.1570 -7.1250 0.0000 -0.0000 -55.6810 69.1651 -35.9581 0.0000 -0.0000 0.0000 96.2219 41.6782 49.0580 -110.4314 58.3624 -77.5968 0.0000 -0.0000 -53.7717 -26.6407 -58.2656 23.1057 7.1250 -0.0000 -0.0000 89.9329 81.2142 98.8230
0.00 0.00 0.00 -54.7745 -86.5906 61.7412 0.0000 0.0000 0.0000 -16.8583 -2.1943 -0.5015 1.8069 8.4517 24.0947 0.5856 -1.1690 -14.1018 1.2486 -7.0847 -19.9667 0.0000 0.0000 0.0000 16.3928 8.0907 -28.4483 -1.2401 -7.0613 19.8970 0.5728 -14.0321 -0.2915 -0.6750 -5.2536 14.6334 -0.0063 -2.9904 -1.8977 3.8956 -4.0301 -2.8114 3.9851 -2.0172 -1.5450 -5.8499 1.2985 -4.6967 11.7845 2.6361 -20.1812 4.7097 0.6212 -5.4665 0.0000 -0.0000 0.0000 -108.5901 -33.8279 65.3632 79.4831 -59.5779 -50.9050 -0.0000 0.0000 -51.7994 22.9643 56.5343 19.4680 -7.1250 0.0000 -0.0000 -84.2676 80.3466 -74.4433 0.0000 -0.0000 0.0000 82.2986 -3.4940 40.3557 -107.4573 58.8166 -75.0584 0.0000 -0.0000 -50.7743 -43.7468 -66.7381 41.3275 7.1250 -0.0000 -0.0000 148.3812 75.9809 156.5055
0.00 0.00 0.00 -70.0748 -86.4152 77.2466 0.0000 0.0000 0.0000 -15.5061 -2.0204 -2.1552 2.6464 10.0993 29.2989 0.4665 -0.8460 -12.6353 1.5454 -7.8469 -22.2501 0.0000 0.0000 0.0000 18.5097 8.5236 -26.1676 -1.2775 -7.1630 20.1991 0.5157 -12.9060 -1.7947 -0.9069 -6.0687 16.9838 0.1965 -3.3237 -2.1787 4.2067 -4.4892 -3.0928 4.1818 -2.2532 -1.6377 -6.3745 1.5848 -4.1976 12.6587 3.1409 -20.6328 5.0862 0.8085 -5.7510 0.0000 -0.0000 0.0000 -114.9939 -39.2333 70.6834 84.3992 -59.8811 -55.1515 -0.0000 0.0000 -53.3592 21.4748 56.4806 18.1584 -7.1250 0.0000 -0.0000 -82.9980 79.8081 -72.6104 0.0000 -0.0000 0.0000 81.9706 -8.3254 41.6016 -89.9182 60.0000 -59.9292 0.0000 -0.0000 -49.2254 -43.5616 -67.2834 41.2584 7.1250 -0.0000 -0.0000 148.0664 75.5657 156.5289
0.00 0.00 0.00 -88.3334 -85.9650 95.6579 0.0000 0.0000 0.0000 -13.9485 -1.6941 -5.2051 3.9684 12.1182 36.1514 0.3538 -0.1587 -11.1818 1.6613 -8.1217 -23.0842 0.0000 0.0000 0.0000 20.9221 8.9937 -22.8494 -1.2409 -7.0636 19.9040 0.4514 -11.8144 -3.9284 -1.0604 -6.5473 18.3810 0.5215 -3.7055 -2.5082 4.4962 -5.0183 -3.4710 4.2871 -2.5279 -1.8093 -7.0049 1.8174 -3.6794 13.6462 3.5736 -20.6412 5.5111 0.9782 -5.9018 0.0000 0.0000 0.0000 -122.9506 -43.5186 78.4861 91.0175 -59.9961 -60.8812 -0.0000 0.0000 -55.2258 18.2090 55.0934 15.0975 -7.1250 0.0000 -0.0000 -74.6512 78.5597 -63.1180 0.0000 0.0000 0.0000 82.0930 -11.6120 42.5655 -68.6685 58.2088 -41.6374 0.0000 -0.0000 -46.9577 -40.4852 -67.1555 38.1913 7.1250 -0.0000 -0.0000 143.8955 76.0964 152.9262
0.00 0.00 0.00 -126.0220 -83.5771 133.2160 0.0000 0.0000 0.0000 -11.3391 -0.4994 -14.7950 6.9327 15.2749 48.6192 0.4452 2.0946 -13.5422 1.2380 -7.0556 -19.8802 0.0000 0.0000 0.0000 25.2277 9.3723 -14.1232 -0.9727 -6.2786 17.5951 0.2436 -9.7167 -8.1583 -0.8696 -5.9459 16.6276 1.7703 -4.1378 -2.9952 4.6582 -5.6436 -3.8725 3.7359 -2.8782 -2.0122 -7.6048 2.3177 -3.4019 14.5841 4.2697 -18.5236 5.8382 1.3819 -5.3848 -0.0000 0.0000 0.0000 -130.4956 -44.8833 90.5553 109.7551 -58.4728 -77.0206 -0.0000 0.0000 -56.9953 14.0553 51.6902 11.1139 -7.1250 0.0000 -0.0000 -60.8075 76.0822 -47.6731 -0.0000 0.0000 0.0000 83.8577 -11.9126 41.9013 -39.8351 47.9719 -18.3166 0.0000 -0.0000 -40.4131 -30.4671 -63.6974 27.8056 7.1250 -0.0000 -0.0000 121.5960 79.1475 131.4099
0.00 0.00 0.00 -138.5410 -79.9446 145.4180 0.0000 0.0000 0.0000 -8.5869 -1.1036 -24.5647 6.8700 15.2215 48.3811 0.9008 3.4795 -19.5097 0.8935 -6.0246 -16.8560 0.0000 0.0000 0.0000 28.3579 8.7635 -6.6441 -0.7840 -5.6526 15.7798 -0.0341 -7.6680 -11.6367 -0.5755 -4.8581 13.5042 4.1576 -3.2234 -2.5890 4.5307 -4.4710 -2.8780 2.2838 -2.3314 -1.4651 -6.5945 2.4796 -4.6464 12.6650 4.1774 -15.6542 4.9795 1.5563 -4.2493 0.0000 -0.0000 0.0000 -117.7746 -36.5277 89.5251 127.7479 -53.8644 -92.0170 -0.0000 0.0000 -54.7016 17.5524 53.8655 14.3302 -7.1250 0.0000 -0.0000 -68.7202 78.1139 -57.0194 0.0000 -0.0000 0.0000 86.0974 -7.9251 38.0558 -29.4724 40.4369 -11.0658 0.0000 -0.0000 -36.4770 -28.2637 -61.6614 25.3234 7.1250 -0.0000 -0.0000 110.0845 80.1724 119.7057
0.00 0.00 0.00 -134.1880 -77.6979 141.7530 0.0000 0.0000 0.0000 -3.9583 -5.6214 -31.6871 3.3067 11.1757 32.8746 0.4327 4.1812 -14.6693 0.8393 -5.8438 -16.3320 0.0000 0.0000 0.0000 30.9286 7.5829 -1.3774 -0.8186 -5.7732 16.1279 -0.4108 -6.1581 -15.9225 -0.2022 -2.8954 7.9876 7.1598 -0.6299 -1.7707 4.7036 -1.0982 -1.2508 0.8232 -0.6460 -0.3317 -5.2497 0.8907 -7.4443 8.7348 1.6147 -11.3296 3.8676 0.6344 -2.5184 -0.0000 -0.0000 0.0000 -97.6156 -17.3088 84.1587 134.2605 -51.1257 -97.1870 -0.0000 0.0000 -51.7293 17.4199 55.9061 14.5652 -7.1250 0.0000 -0.0000 -78.5789 78.3112 -66.6534 -0.0000 -0.0000 0.0000 88.4756 0.2646 43.1382 -27.5755 38.7225 -9.8570 0.0000 -0.0000 -45.2734 -34.6158 -66.3549 32.3057 7.1250 -0.0000 -0.0000 134.4016 77.2056 144.3424
